<svg width="739" height="116.5" viewBox="0 0 1478 233" fill="none" xmlns="http://www.w3.org/2000/svg">
<path d="M0.4 11H36.1V221H0.4V11ZM233.317 11H268.117V231.5L114.817 80V221H80.0172V0.499996L233.317 152V11ZM391.785 158.6L453.585 11H494.385L391.785 232.7L289.185 11H329.985L391.785 158.6ZM536.92 116C536.92 130.4 539.92 143.3 545.92 154.7C552.12 165.9 560.62 174.7 571.42 181.1C582.22 187.5 594.52 190.7 608.32 190.7C622.32 190.7 634.62 187.5 645.22 181.1C656.02 174.7 664.42 165.9 670.42 154.7C676.62 143.3 679.72 130.4 679.72 116C679.72 101.6 676.72 88.8 670.72 77.6C664.72 66.2 656.32 57.3 645.52 50.9C634.92 44.5 622.52 41.3 608.32 41.3C594.52 41.3 582.22 44.5 571.42 50.9C560.62 57.3 552.12 66.2 545.92 77.6C539.92 88.8 536.92 101.6 536.92 116ZM499.42 116C499.42 100.2 502.12 85.7 507.52 72.5C512.92 59.3 520.52 47.9 530.32 38.3C540.32 28.5 551.92 20.9 565.12 15.5C578.52 10.1 592.92 7.4 608.32 7.4C624.12 7.4 638.62 10.1 651.82 15.5C665.02 20.9 676.52 28.5 686.32 38.3C696.32 47.9 704.02 59.3 709.42 72.5C714.82 85.7 717.52 100.2 717.52 116C717.52 131.6 714.82 146.1 709.42 159.5C704.02 172.9 696.42 184.5 686.62 194.3C676.82 204.1 665.22 211.8 651.82 217.4C638.62 222.8 624.12 225.5 608.32 225.5C592.72 225.5 578.22 222.8 564.82 217.4C551.42 211.8 539.82 204.1 530.02 194.3C520.42 184.5 512.92 172.9 507.52 159.5C502.12 146.1 499.42 131.6 499.42 116ZM748.947 11H784.647V221H748.947V11ZM854.664 116C854.664 130.8 857.964 143.8 864.564 155C871.364 166.2 880.164 174.9 890.964 181.1C901.964 187.1 913.864 190.1 926.664 190.1C936.664 190.1 945.664 188.8 953.664 186.2C961.664 183.6 968.864 180.1 975.264 175.7C981.864 171.1 987.564 166 992.364 160.4V202.4C983.564 209.6 974.064 215.1 963.864 218.9C953.664 222.7 940.864 224.6 925.464 224.6C910.064 224.6 895.664 222 882.264 216.8C869.064 211.6 857.564 204.1 847.764 194.3C837.964 184.5 830.264 173 824.664 159.8C819.264 146.4 816.564 131.8 816.564 116C816.564 100.2 819.264 85.7 824.664 72.5C830.264 59.1 837.964 47.5 847.764 37.7C857.564 27.9 869.064 20.4 882.264 15.2C895.664 9.99999 910.064 7.4 925.464 7.4C940.864 7.4 953.664 9.3 963.864 13.1C974.064 16.9 983.564 22.4 992.364 29.6V71.6C987.564 66 981.864 61 975.264 56.6C968.864 52 961.664 48.4 953.664 45.8C945.664 43.2 936.664 41.9 926.664 41.9C913.864 41.9 901.964 45 890.964 51.2C880.164 57.2 871.364 65.8 864.564 77C857.964 88 854.664 101 854.664 116ZM1054.89 221V189.8H1160.79V221H1054.89ZM1054.89 42.2V11H1160.79V42.2H1054.89ZM1054.89 123.8V93.2H1154.79V123.8H1054.89ZM1032.99 11H1067.79V221H1032.99V11ZM1201.37 11H1236.77V189.2H1320.17V221H1201.37V11ZM1437.21 11H1477.71L1406.31 132.5V221H1370.31V132.8L1299.21 11H1339.41L1388.31 101L1437.21 11Z" fill="#070A28"/>
</svg>
